<svg id="Layer_1" data-name="Layer 1" xmlns="http://www.w3.org/2000/svg" viewBox="0 0 512 512">
    <defs>
        <style>
            .cls-1{fill:#898989}
        </style>
    </defs>
    <path class="cls-1" d="M178.07 221a5.69 5.69 0 0 1-2.54-10.78l155.87-77.86a5.69 5.69 0 1 1 5.08 10.18L180.6 220.36a5.6 5.6 0 0 1-2.53.64zm155.86 159.24a5.58 5.58 0 0 1-2.53-.6l-155.88-77.82a5.69 5.69 0 1 1 5.08-10.18l155.88 77.82a5.69 5.69 0 0 1-2.54 10.78z"/>
    <path class="cls-1" d="M415.29 193.42A96.71 96.71 0 1 1 512 96.71a96.82 96.82 0 0 1-96.71 96.71zm0-182a85.33 85.33 0 1 0 85.33 85.33 85.43 85.43 0 0 0-85.33-85.37zm0 500.58A96.71 96.71 0 1 1 512 415.29 96.82 96.82 0 0 1 415.29 512zm0-182a85.33 85.33 0 1 0 85.33 85.33A85.43 85.43 0 0 0 415.29 330zM96.71 352.71A96.71 96.71 0 1 1 193.42 256a96.82 96.82 0 0 1-96.71 96.71zm0-182A85.33 85.33 0 1 0 182 256a85.43 85.43 0 0 0-85.29-85.33z"/>
</svg>
